<svg xmlns="http://www.w3.org/2000/svg" width="64.067" height="64.186" viewBox="0 0 64.067 64.186">
  <g id="booking" transform="translate(-0.474)">
    <path id="Path_3353" data-name="Path 3353" d="M360.609,83.281h4.825a.941.941,0,0,0,0-1.882h-4.825a.941.941,0,0,0,0,1.882Z" transform="translate(-314.124 -71.185)" fill="#899f9f"/>
    <path id="Path_3354" data-name="Path 3354" d="M60.009,81.4H55.321a.941.941,0,1,0,0,1.882h4.688a2.653,2.653,0,0,1,2.65,2.65v33.281H12.05a.941.941,0,1,0,0,1.882H62.659v1.014a2.653,2.653,0,0,1-2.65,2.65h-55a2.653,2.653,0,0,1-2.65-2.65v-1.014H8.039a.941.941,0,1,0,0-1.882H2.356V85.931a2.653,2.653,0,0,1,2.65-2.65H18.529a.941.941,0,1,0,0-1.882H5.006A4.537,4.537,0,0,0,.474,85.931v36.176a4.537,4.537,0,0,0,4.532,4.532H20.587v3.674l-2.368,3.175H17.083a.941.941,0,0,0,0,1.882H48.195a.941.941,0,0,0,0-1.882H46.921l-2.368-3.175v-3.674H60.009a4.537,4.537,0,0,0,4.532-4.532V85.931A4.537,4.537,0,0,0,60.009,81.4ZM42.858,131.188l1.716,2.3H20.567l1.716-2.3a.94.94,0,0,0,.187-.563v-3.986h20.2v3.986a.941.941,0,0,0,.187.563Z" transform="translate(0 -71.185)" fill="#899f9f"/>
    <path id="Path_3355" data-name="Path 3355" d="M178.025,22.309A11.155,11.155,0,1,0,166.87,11.155,11.167,11.167,0,0,0,178.025,22.309Zm0-20.427a9.273,9.273,0,1,1-9.273,9.272,9.283,9.283,0,0,1,9.273-9.272Z" transform="translate(-145.517)" fill="#899f9f"/>
    <path id="Path_3356" data-name="Path 3356" d="M220.946,69.646a.941.941,0,0,0,1.287-.019l6.692-6.461a.941.941,0,0,0-1.307-1.354l-6.057,5.849-1.886-1.715a.941.941,0,0,0-1.266,1.393Z" transform="translate(-190.319 -53.825)" fill="#899f9f"/>
    <path id="Path_3357" data-name="Path 3357" d="M100.256,210.992h26.476a.941.941,0,1,0,0-1.882H100.256a2.454,2.454,0,0,0-2.451,2.451v5.561a2.454,2.454,0,0,0,2.451,2.451h15.462a.941.941,0,0,0,0-1.882H100.256a.569.569,0,0,1-.569-.569v-5.561A.569.569,0,0,1,100.256,210.992Z" transform="translate(-85.118 -182.872)" fill="#899f9f"/>
    <path id="Path_3358" data-name="Path 3358" d="M353.74,210.992h4.254a.569.569,0,0,1,.569.569v5.561a.569.569,0,0,1-.569.569h-3.6a.941.941,0,0,0,0,1.882h3.6a2.454,2.454,0,0,0,2.451-2.451v-5.561a2.454,2.454,0,0,0-2.451-2.451H353.74a.941.941,0,1,0,0,1.882Z" transform="translate(-308.117 -182.872)" fill="#899f9f"/>
    <path id="Path_3359" data-name="Path 3359" d="M270.709,267.906a1.51,1.51,0,0,0-1.042-1.226l-7.094-2.26a1.52,1.52,0,0,0-1.978,1.359l-.434,7.432a1.52,1.52,0,0,0,2.378,1.341l1.4-.965,1.725,2.51a1.478,1.478,0,0,0,.955.62,1.5,1.5,0,0,0,.274.025,1.478,1.478,0,0,0,.839-.262L270,274.925a1.49,1.49,0,0,0,.384-2.069l-1.725-2.511,1.4-.965A1.509,1.509,0,0,0,270.709,267.906Zm-3.713,6.8-2.035-2.961a.941.941,0,0,0-1.309-.243l-1.569,1.079.363-6.227,5.943,1.893-1.569,1.078a.941.941,0,0,0-.243,1.308l2.035,2.961Z" transform="translate(-227.101 -231.178)" fill="#899f9f"/>
  </g>
</svg>
