<svg xmlns="http://www.w3.org/2000/svg" width="20.125" height="23" viewBox="0 0 20.125 23">
  <g id="Group_1227" data-name="Group 1227" transform="translate(-406 -718.5)">
    <path id="Path_2063" data-name="Path 2063" d="M264.726,264.305a.9.9,0,0,0,.9-.9V256.04a3.6,3.6,0,0,0-3.594-3.594h-1.08v-3.169a5.392,5.392,0,0,0-10.781,0v3.169h-1.076a3.6,3.6,0,0,0-3.594,3.594v7.367A3.6,3.6,0,0,0,249.094,267h12.938a3.6,3.6,0,0,0,3.594-3.594.9.9,0,0,0-1.8,0,1.8,1.8,0,0,1-1.8,1.8H249.094a1.8,1.8,0,0,1-1.8-1.8V256.04a1.8,1.8,0,0,1,1.8-1.8h12.938a1.8,1.8,0,0,1,1.8,1.8v7.367A.9.9,0,0,0,264.726,264.305Zm-5.572-11.859h-7.187v-3.169a3.6,3.6,0,0,1,7.187,0Z" transform="translate(160.5 474.5)" fill="#8ca4a4"/>
    <path id="Path_4384" data-name="Path 4384" d="M2.986,4.961,0,1.975l.965-.965L2.986,2.986,5.971,0l.965.965Z" transform="translate(413 731.474)" fill="#8ca4a4"/>
  </g>
</svg>
