<svg xmlns="http://www.w3.org/2000/svg" width="21.333" height="17.708" viewBox="0 0 21.333 17.708">
  <g id="Group_1272" data-name="Group 1272" transform="translate(-405 -293.5)">
    <path id="Path_4379" data-name="Path 4379" d="M17.92,16.17H3.413C1.528,16.17,0,18.044,0,20.356v9.337C0,32,1.528,33.878,3.413,33.878H17.92c1.885,0,3.413-1.874,3.413-4.186V20.348C21.33,18.039,19.8,16.17,17.92,16.17Zm1.8,13.523a2.036,2.036,0,0,1-1.8,2.205H3.413a2.036,2.036,0,0,1-1.8-2.205V20.348a2.036,2.036,0,0,1,1.8-2.205H17.92a2.036,2.036,0,0,1,1.8,2.205Z" transform="translate(405 277.33)" fill="#8ca4a4"/>
    <path id="Path_4380" data-name="Path 4380" d="M30.23,33.025l-5.011,3.469-5.44-3.52a.8.8,0,1,0-.873,1.35l5.875,3.793h.03l.075.043.034.015.064.023.041.013.064.013a.231.231,0,0,0,.041,0h.186l.09-.017h0l.09-.028h0l.081-.036.019-.011.068-.043h0l5.481-3.729a.8.8,0,1,0-.913-1.325Z" transform="translate(390.434 265.507)" fill="#8ca4a4"/>
  </g>
</svg>
