<svg xmlns="http://www.w3.org/2000/svg" width="21.333" height="21.334" viewBox="0 0 21.333 21.334">
  <g id="Group_1220" data-name="Group 1220" transform="translate(-405 -284)">
    <path id="Path_4368" data-name="Path 4368" d="M79.786,223.573a5.12,5.12,0,1,0-5.12-5.12A5.126,5.126,0,0,0,79.786,223.573Zm0-8.777a3.657,3.657,0,1,1-3.657,3.657A3.661,3.661,0,0,1,79.786,214.8Z" transform="translate(335.865 70.667)" fill="#8ca4a4"/>
    <path id="Path_4369" data-name="Path 4369" d="M18.857,386.261A17.794,17.794,0,0,0,10.667,384a17.794,17.794,0,0,0-8.191,2.262A4.768,4.768,0,0,0,0,390.487v.723a2.228,2.228,0,0,0,2.177,2.272H19.156a2.228,2.228,0,0,0,2.177-2.272v-.723A4.768,4.768,0,0,0,18.857,386.261Zm.952,4.948a.674.674,0,0,1-.653.691H2.177a.674.674,0,0,1-.653-.691v-.723a3.183,3.183,0,0,1,1.655-2.823,16.312,16.312,0,0,1,7.488-2.084,16.312,16.312,0,0,1,7.488,2.084,3.183,3.183,0,0,1,1.655,2.823Z" transform="translate(405 -88.148)" fill="#8ca4a4"/>
  </g>
</svg>
