<svg xmlns="http://www.w3.org/2000/svg" width="60.001" height="60.003" viewBox="0 0 60.001 60.003">
  <g id="Group_1236" data-name="Group 1236" transform="translate(4708.001 -1324)">
    <path id="Path_4392" data-name="Path 4392" d="M2.118,15.472A1,1,0,0,0,3,16H6v3H8V16h3a1,1,0,0,0,.832-1.555l-1.145-1.717a1.049,1.049,0,0,0,.164-.2,1,1,0,0,0,.044-.972L9.867,9.5a1,1,0,0,0,.082-.814l-2-6a1,1,0,0,0-1.9,0l-2,6a1,1,0,0,0,.082.814L3.105,11.553a1,1,0,0,0,.044.972,1.049,1.049,0,0,0,.164.2l-1.145,1.72a1,1,0,0,0-.05,1.027Zm3.764-3.944a1,1,0,0,0-.343-.37L6.4,9.447a1,1,0,0,0-.044-.972,1.062,1.062,0,0,0-.083-.116L7,6.162l.732,2.2a1.062,1.062,0,0,0-.083.116,1,1,0,0,0-.044.972l.856,1.711a1,1,0,0,0-.293,1.4L9.131,14H4.869l.963-1.445A1,1,0,0,0,5.882,11.528Z" transform="translate(-4710 1322.003)" fill="#8998a4"/>
    <path id="Path_4393" data-name="Path 4393" d="M16.118,25.472A1,1,0,0,0,17,26h3v3h2V26h3a1,1,0,0,0,.832-1.555l-1.145-1.717a1.049,1.049,0,0,0,.164-.2,1,1,0,0,0,.044-.972L23.867,19.5a1,1,0,0,0,.082-.814l-2-6a1,1,0,0,0-1.9,0l-2,6a1,1,0,0,0,.082.814L17.1,21.555a1,1,0,0,0,.044.972,1.049,1.049,0,0,0,.164.2l-1.145,1.717a1,1,0,0,0-.048,1.028Zm3.764-3.944a1,1,0,0,0-.343-.37l.856-1.711a1,1,0,0,0-.044-.972,1.062,1.062,0,0,0-.083-.116l.732-2.2.732,2.2a1.062,1.062,0,0,0-.083.116,1,1,0,0,0-.044.972l.856,1.711a1,1,0,0,0-.293,1.4L23.131,24H18.869l.963-1.445A1,1,0,0,0,19.882,21.528Z" transform="translate(-4710 1322.003)" fill="#8998a4"/>
    <path id="Path_4394" data-name="Path 4394" d="M38.118,48.472A1,1,0,0,0,39,49h3v3h2V49h3a1,1,0,0,0,.832-1.555l-1.145-1.717a1.049,1.049,0,0,0,.164-.2,1,1,0,0,0,.044-.972L45.867,42.5a1,1,0,0,0,.082-.814l-2-6a1,1,0,0,0-1.9,0l-2,6a1,1,0,0,0,.082.814L39.1,44.553a1,1,0,0,0,.044.972,1.049,1.049,0,0,0,.164.2l-1.145,1.717A1,1,0,0,0,38.118,48.472Zm3.764-3.944a1,1,0,0,0-.343-.37l.856-1.711a1,1,0,0,0-.044-.972,1.062,1.062,0,0,0-.083-.116l.732-2.2.732,2.2a1.062,1.062,0,0,0-.083.116,1,1,0,0,0-.044.972l.856,1.711a1,1,0,0,0-.293,1.4L45.131,47H40.869l.963-1.445A1,1,0,0,0,41.882,44.528Z" transform="translate(-4710 1322.003)" fill="#8998a4"/>
    <path id="Path_4395" data-name="Path 4395" d="M58,62V59h3a1,1,0,0,0,.832-1.555l-1.145-1.717a1.049,1.049,0,0,0,.164-.2,1,1,0,0,0,.044-.972L59.867,52.5a1,1,0,0,0,.082-.814l-2-6a1,1,0,0,0-1.9,0l-2,6a1,1,0,0,0,.082.814L53.1,54.555a1,1,0,0,0,.044.972,1.049,1.049,0,0,0,.164.2l-1.145,1.717A1,1,0,0,0,53,59h3v3Zm-3.131-5,.963-1.445a1,1,0,0,0-.293-1.4l.856-1.711a1,1,0,0,0-.044-.972,1.062,1.062,0,0,0-.083-.116l.732-2.2.732,2.2a1.062,1.062,0,0,0-.083.116,1,1,0,0,0-.044.972l.856,1.711a1,1,0,0,0-.293,1.4L59.131,57Z" transform="translate(-4710 1322.003)" fill="#8998a4"/>
    <path id="Path_4396" data-name="Path 4396" d="M2.043,45.29A1,1,0,0,0,3,46H4V61a1,1,0,0,0,1,1H31a1,1,0,0,0,1-1V46h1a1,1,0,0,0,.555-1.832L28,40.465V35a1,1,0,0,0-1-1H23a1,1,0,0,0-1,1v1.465l-3.445-2.3a1,1,0,0,0-1.11,0l-15,10a1,1,0,0,0-.4,1.125ZM20,60H16V56a2,2,0,0,1,4,0Zm4-24h2v3.132L24,37.8Zm-6,.2L29.7,44H6.3ZM6,46H30V60H22V56a4,4,0,0,0-8,0v4H6Z" transform="translate(-4710 1322.003)" fill="#8998a4"/>
    <path id="Path_4397" data-name="Path 4397" d="M55,2H51a1,1,0,0,0-1,1V4.465l-3.445-2.3a1,1,0,0,0-1.11,0l-15,10A1,1,0,0,0,31,14h1V29a1,1,0,0,0,1,1H59a1,1,0,0,0,1-1V14h1a1,1,0,0,0,.555-1.832L56,8.465V3A1,1,0,0,0,55,2ZM52,4h2V7.132L52,5.8ZM48,28H44V24a2,2,0,0,1,4,0Zm10,0H50V24a4,4,0,0,0-8,0v4H34V14H58Zm-.3-16H34.3L46,4.2Z" transform="translate(-4710 1322.003)" fill="#8998a4"/>
  </g>
</svg>
