<svg xmlns="http://www.w3.org/2000/svg" width="67.5" height="57.498" viewBox="0 0 67.5 57.498">
  <g id="Group_1233" data-name="Group 1233" transform="translate(-441.054 -211.854)">
    <path id="Path_4390" data-name="Path 4390" d="M6.267,64.169H71.233a1.24,1.24,0,1,0,0-2.48H66.48V20.978L41.836,10.736a.018.018,0,0,0-.009,0l-.7-.29L27.606,21.209V37.561a5.078,5.078,0,0,0-.5-.2V36.085a5.784,5.784,0,0,0-11.566,0v1.274a4.5,4.5,0,0,0-3.249,4.23,4.131,4.131,0,0,0,.279,1.491,7.618,7.618,0,0,0-3.289,6.26A7.847,7.847,0,0,0,17.2,57.091h3.327v4.6H6.267a1.24,1.24,0,1,0,0,2.48ZM42.606,38.431l21.338,5.36v4.2L42.606,43.961Zm21.338,2.8L42.606,35.87V30.252l21.338,6.511ZM42.606,46.486l21.338,4.031v4.767L42.606,52.118Zm21.338-12.32L42.606,27.654V22.4l21.338,7.055ZM42.606,61.689V54.628L63.944,57.8v3.894ZM63.944,26.839,42.641,19.8c-.012,0-.024,0-.035,0V13.751L63.944,22.62ZM40.071,14.484V61.689H30.142V56.164a7.646,7.646,0,0,0,.084-13.578,4.076,4.076,0,0,0,.126-1,4.214,4.214,0,0,0-.21-1.291V22.388ZM17.2,54.609a5.337,5.337,0,0,1-5.387-5.27,5.221,5.221,0,0,1,3.019-4.706l1.412-.682-.984-1.2a1.846,1.846,0,0,1-.436-1.159,2.133,2.133,0,0,1,2.091-1.99l1.156-.1V36.085a3.249,3.249,0,0,1,6.5,0V39.5l1.157.1a2.133,2.133,0,0,1,2.091,1.99,1.781,1.781,0,0,1-.3.97l-.846,1.316,1.5.515a5.275,5.275,0,0,1,3.612,4.95,5.336,5.336,0,0,1-5.387,5.27H23.065V49.655l1.542-5.736a1.238,1.238,0,0,0-.9-1.515,1.27,1.27,0,0,0-1.549.885l-1.21,4.5-1.976-.829a1.279,1.279,0,0,0-1.665.651,1.231,1.231,0,0,0,.665,1.629l2.559,1.072v4.3Zm5.862,2.481h3.327a7.94,7.94,0,0,0,1.215-.1v4.7H23.063Z" transform="translate(436.054 201.41)" fill="#8997a4"/>
    <path id="Path_4391" data-name="Path 4391" d="M71.231,54.459H6.267a1.24,1.24,0,1,0,0,2.48H71.231a1.24,1.24,0,1,0,0-2.48Z" transform="translate(436.054 212.413)" fill="#8997a4"/>
  </g>
</svg>
