<svg xmlns="http://www.w3.org/2000/svg" width="70.725" height="60.778" viewBox="0 0 70.725 60.778">
  <g id="Group_1258" data-name="Group 1258" transform="translate(-1081.5 -1159)">
    <path id="Path_4263" data-name="Path 4263" d="M56.566,88.447H57.8L54.49,97.076l2.257.864,3.636-9.493h4.039L75.23,94.38h.31A3.98,3.98,0,0,0,79.516,90.4V71.344a3.98,3.98,0,0,0-3.976-3.975h-.31L64.422,73.3H56.566a7.572,7.572,0,0,0,0,15.144ZM73.086,71.3l2.722-1.494A1.561,1.561,0,0,1,77.1,71.344V90.4a1.561,1.561,0,0,1-1.291,1.535l-2.722-1.494ZM56.566,75.719h8.476l5.628-3.09v16.49L65.042,86.03H56.566a5.156,5.156,0,0,1,0-10.311Z" transform="translate(1034.519 1091.631)" fill="#899f9f"/>
    <path id="Path_4264" data-name="Path 4264" d="M100.539,246.74V211.617h-15.3V246.74H78.79V224.507h-15.3V246.74H57.041V234.174h-15.3V246.74H36.5v2.417h70.725V246.74Zm-45.915,0H44.152V236.59H54.624Zm21.749,0H65.9V226.923H76.373Zm21.749,0H87.65V214.034H98.122Z" transform="translate(1045 970.622)" fill="#899f9f"/>
    <path id="Path_4265" data-name="Path 4265" d="M276.391,86.473l5.784,4.157,11.712-10.569V87.17H296.3V76.135H285.268v2.417h6.684L282,87.53l-5.578-4.009-6.662,4.562,1.365,1.994Z" transform="translate(849.317 1084.277)" fill="#899f9f"/>
  </g>
</svg>
