<svg xmlns="http://www.w3.org/2000/svg" width="17.616" height="25.89" viewBox="0 0 17.616 25.89">
  <g id="Group_1223" data-name="Group 1223" transform="translate(-5.75 -1.773)">
    <path id="Path_4382" data-name="Path 4382" d="M19.362,1.773H9.754a3.822,3.822,0,0,0-4,3.6v18.7a3.822,3.822,0,0,0,4,3.6h9.609a3.822,3.822,0,0,0,4-3.6V5.369A3.821,3.821,0,0,0,19.362,1.773Zm2.4,22.293a2.293,2.293,0,0,1-2.4,2.158H9.754a2.293,2.293,0,0,1-2.4-2.158V5.369a2.293,2.293,0,0,1,2.4-2.158h9.609a2.293,2.293,0,0,1,2.4,2.158Z" transform="translate(0)" fill="#8ca4a4"/>
    <circle id="Ellipse_278" data-name="Ellipse 278" cx="1.734" cy="1.734" r="1.734" transform="translate(12.824 21.59)" fill="#8ca4a4"/>
    <path id="Path_4383" data-name="Path 4383" d="M14.632,3.477h-3.47a.867.867,0,1,0,0,1.734h3.47a.867.867,0,0,0,0-1.734Z" transform="translate(1.66 0.897)" fill="#8ca4a4"/>
  </g>
</svg>
