<svg xmlns="http://www.w3.org/2000/svg" width="56.99" height="57" viewBox="0 0 56.99 57">
  <g id="Page-1" transform="translate(0.005 0.008)">
    <g id="_050---Web-Connections" data-name="050---Web-Connections" transform="translate(-0.005 -0.008)">
      <path id="Shape" d="M54.178,29.488a24.31,24.31,0,0,0-2.014-9.745C55.543,14.573,60.3,5.858,56.7,2.275c-2.913-2.916-9.211-.322-14.244,2.556A3.754,3.754,0,0,0,36.6,5.865a24.431,24.431,0,0,0-16.856.95C14.571,3.433,5.856-1.32,2.275,2.275-.64,5.19,1.953,11.492,4.831,16.519a3.754,3.754,0,0,0,1.034,5.86,24.225,24.225,0,0,0,0,14.223,3.754,3.754,0,0,0-1.034,5.857C1.949,47.484-.64,53.785,2.274,56.7a4.815,4.815,0,0,0,3.553,1.283c4.2,0,10.05-3.293,13.916-5.818a24.435,24.435,0,0,0,16.855.95,3.755,3.755,0,0,0,5.863,1.032c3.466,1.987,7.533,3.838,10.686,3.838A4.824,4.824,0,0,0,56.7,56.705c3.6-3.584-1.157-12.3-4.536-17.473A24.3,24.3,0,0,0,54.178,29.488Zm-3.3,7.845c-.728-1.045-1.519-2.131-2.366-3.24a6.619,6.619,0,0,0,0-9.211c.844-1.109,1.638-2.194,2.366-3.24a22.726,22.726,0,0,1,0,15.689Zm-31.31,12.66a22.706,22.706,0,0,1-8.942-7.734,3.773,3.773,0,0,0-2.92-6.117,22.4,22.4,0,0,1,0-13.308,3.773,3.773,0,0,0,2.92-6.117,22.7,22.7,0,0,1,8.942-7.733,100.112,100.112,0,0,1,9.3,7.152c2.4,2.049,4.836,4.31,7.247,6.72.9.9,1.694,1.717,2.423,2.488a6.617,6.617,0,0,0,0,8.286c-.729.771-1.526,1.591-2.423,2.488-2.411,2.41-4.849,4.671-7.25,6.723a100.17,100.17,0,0,1-9.3,7.151Zm19.413-20.5a4.748,4.748,0,1,1,4.748,4.748,4.748,4.748,0,0,1-4.748-4.748ZM55.359,3.619c1.793,1.787.16,7.249-4.161,14.118A24.6,24.6,0,0,0,43.43,9.129a3.659,3.659,0,0,0,.081-2.709c5.777-3.285,10.287-4.364,11.848-2.8ZM39.933,5.748a1.9,1.9,0,1,1-1.9,1.9A1.9,1.9,0,0,1,39.933,5.748ZM36.142,7.709a3.773,3.773,0,0,0,6.117,2.92A22.7,22.7,0,0,1,50,19.576c-.889,1.318-1.887,2.705-2.978,4.14a6.6,6.6,0,0,0-7.088.329c-.744-.785-1.554-1.619-2.469-2.531-2.445-2.445-4.921-4.74-7.355-6.819a104.155,104.155,0,0,0-8.476-6.6,22.58,22.58,0,0,1,14.511-.389ZM3.619,3.617C5.4,1.824,10.867,3.459,17.737,7.778A24.6,24.6,0,0,0,9.13,15.546a3.788,3.788,0,0,0-1.483-.3,3.739,3.739,0,0,0-1.227.221C3.135,9.686,2.055,5.178,3.619,3.617ZM7.647,17.143a1.9,1.9,0,1,1-1.9,1.9,1.9,1.9,0,0,1,1.9-1.9Zm0,20.891a1.9,1.9,0,1,1-1.9,1.9,1.9,1.9,0,0,1,1.9-1.9ZM3.618,55.358c-1.563-1.563-.482-6.068,2.8-11.847a3.739,3.739,0,0,0,1.227.221,3.788,3.788,0,0,0,1.483-.3A24.586,24.586,0,0,0,17.736,51.2C10.866,55.516,5.4,57.151,3.618,55.358Zm18.014-4.48A104.534,104.534,0,0,0,30.1,44.283c2.437-2.082,4.912-4.377,7.358-6.822.913-.913,1.724-1.745,2.469-2.531a6.6,6.6,0,0,0,7.088.329C48.11,36.694,49.108,38.082,50,39.4a22.689,22.689,0,0,1-7.735,8.947,3.773,3.773,0,0,0-6.117,2.92,22.577,22.577,0,0,1-14.51-.389Zm18.3,2.35a1.9,1.9,0,1,1,1.9-1.9A1.9,1.9,0,0,1,39.933,53.228Zm15.424,2.13c-1.562,1.563-6.067.484-11.847-2.8a3.659,3.659,0,0,0-.081-2.709A24.6,24.6,0,0,0,51.2,41.239C55.518,48.107,57.152,53.571,55.358,55.358Z" transform="translate(-0.995 -0.992)" fill="#899f9f"/>
    </g>
  </g>
</svg>
