<svg xmlns="http://www.w3.org/2000/svg" width="68.411" height="65.33" viewBox="0 0 68.411 65.33">
  <path id="Path_4401" data-name="Path 4401" d="M72.736,25.687h0c0-.075,0-.075-.075-.15h0c0-.075-.075-.075-.075-.15h0c-.075,0-.075-.075-.15-.075h0L32.906,7.275c-.075,0-.15-.075-.225-.075l-13.3.225h-.451l-.075.075h-.075l-.075.075h0L8.481,22.907h0v.15h0v.15h0v5.712L5.625,30.2H5.55a.074.074,0,0,0-.075.075h0l-.075.075h0v.3h0V48.909a.647.647,0,0,0,.6.6.647.647,0,0,0,.6-.6V36.434l2.029.977v9.92a.633.633,0,0,0,.3.526l7.44,3.983,4.208,2.179,8.642,4.434,4.208,2.179,9.695,5.035,4.208,2.179,1.5.827v2.255a.6.6,0,1,0,1.2,0V69.275l2.1,1.127h.676l9.018-7.515h0l5.787-4.735,4.96-4.058a.65.65,0,0,0,.225-.451V25.838A.233.233,0,0,1,72.736,25.687Zm-2.4-.075-8.116,2.1L21.933,8.628,32.6,8.478ZM28.772,46.5c-.075-.075-.15-.075-.3-.15V43.2l2.1,1.052v3.156L29.3,46.73h0A1.87,1.87,0,0,0,28.772,46.5Zm1.278-3.833h0V36.584l3.006,1.5v6.087l-1.578-.827Zm1.8,2.255,2.1,1.052v3.156l-2.1-1.052Zm3.232,1.653,2.1,1.052v3.081l-2.1-1.052Zm3.307,1.728,2.1,1.052v3.081l-2.1-1.052Zm-.3-1.5-3.307-1.728-.526-.3V37.712a.633.633,0,0,0-.3-.526l-4.208-2.1a.823.823,0,0,0-.6,0,.633.633,0,0,0-.3.526V42l-.676-.376-3.307-1.728-3.232-1.578h0l-.225-.15V31.1a.633.633,0,0,0-.3-.526l-4.208-2.1a.823.823,0,0,0-.6,0,.633.633,0,0,0-.3.526v6.388l-.9-.451L11.788,33.2,9.608,32.075V24.259l42.31,20.817v5.712l-2.781,1.353c-.075,0-.075.075-.15.15l-.827-.376V44.776a.633.633,0,0,0-.3-.526l-4.208-2.1a.823.823,0,0,0-.6,0,.5.5,0,0,0-.3.526V49.21l-1.428-.752ZM25.24,41.469l2.1,1.052v3.156l-2.1-1.052Zm-9.92-5.035,2.1,1.052v3.232l-2.1-1.052Zm1.879-.451V29.971l3.006,1.5v6.087l-1.653-.752-.225-.225Zm1.428,2.179,2.1.977v3.232l-2.1-1.052Zm3.307,1.653,2.1,1.052v3.156l-2.1-1.052Zm-9.845-5.11,2.1,1.052v3.232l-2.1-1.052ZM8.331,31.474,7.053,30.8l1.278-.526Zm1.2,1.954,1.353.676v3.232l-1.353-.676Zm35.1,16.759-.676-.376V43.573l3.006,1.5v6.162Zm-2.931-.15,2.1,1.052V54.17l-2.1-1.052ZM45,51.69l3.833,1.879V56.65L45,54.846Zm4.96,1.578v-.225l1.8-.977V55.3l-1.8.827Zm2.255-9.394L9.834,23.057l9.77-14.2L61.313,28.618ZM6.3,35.081V31.7l2.029,1.052v3.307ZM20.28,52.516l-3.006-1.578V45.3l3.006,1.5ZM33.056,59.13,30.05,57.552V51.99l3.006,1.5Zm13.9,7.139-3.006-1.578V58.979l3.006,1.5Zm.9-6.689-4.208-2.1a.823.823,0,0,0-.6,0,.633.633,0,0,0-.3.526v6.162l-8.492-4.434V53.193a.633.633,0,0,0-.3-.526l-4.208-2.1a.823.823,0,0,0-.6,0,.633.633,0,0,0-.3.526V56.95l-7.44-3.833V46.429a.633.633,0,0,0-.3-.526L16.9,43.8a.823.823,0,0,0-.6,0,.633.633,0,0,0-.3.526v6.012L9.458,46.955V38.012l1.653.827,3.307,1.653,3.307,1.653L21.032,43.8l3.307,1.653,3.307,1.653,3.307,1.653,3.006,1.578,3.532,1.8h0L40.8,53.794,44.1,55.447h0L48.763,57.7v9.319l-.676-.3V59.956C48.161,59.956,48.011,59.731,47.861,59.581Zm2.1,8.267V57.476l1.8-.827V68.824Zm16.609-10.6-4.584,3.758V52.216l4.584-3.908Zm1.2-.977V47.03a.612.612,0,0,0-.977-.451l-5.787,4.96a.65.65,0,0,0-.225.451v10.07L52.971,68.6V44.926l9.544-16.082,9.018-2.255v26.6Z" transform="translate(-4.9 -6.7)" fill="#8997a4" stroke="#8997a4" stroke-width="1"/>
</svg>
