<svg id="Group_644" data-name="Group 644" xmlns="http://www.w3.org/2000/svg" width="41.052" height="54.736" viewBox="0 0 41.052 54.736">
  <path id="Path_3403" data-name="Path 3403" d="M104.718,11.737,93.315.334A1.139,1.139,0,0,0,92.508,0H68.561A4.567,4.567,0,0,0,64,4.561V50.174a4.567,4.567,0,0,0,4.561,4.561h31.93a4.567,4.567,0,0,0,4.561-4.561V12.544A1.139,1.139,0,0,0,104.718,11.737ZM93.649,3.893l7.51,7.51h-5.23a2.283,2.283,0,0,1-2.281-2.281Zm9.123,46.281a2.283,2.283,0,0,1-2.281,2.281H68.561a2.283,2.283,0,0,1-2.281-2.281V4.561a2.283,2.283,0,0,1,2.281-2.281H91.368V9.123a4.567,4.567,0,0,0,4.561,4.561h6.842Z" transform="translate(-64 0)" fill="#899f9f"/>
  <path id="Path_3404" data-name="Path 3404" d="M154.228,298.667H129.14a1.14,1.14,0,1,0,0,2.281h25.088a1.14,1.14,0,1,0,0-2.281Z" transform="translate(-121.771 -260.611)" fill="#899f9f"/>
  <path id="Path_3406" data-name="Path 3406" d="M154.228,362.667H129.14a1.14,1.14,0,0,0,0,2.281h25.088a1.14,1.14,0,1,0,0-2.281Z" transform="translate(-121.771 -317.769)" fill="#899f9f"/>
  <path id="Path_3408" data-name="Path 3408" d="M234.667,171.806a1.14,1.14,0,0,0,1.14,1.14h13.684a1.14,1.14,0,1,0,0-2.281H235.807A1.14,1.14,0,0,0,234.667,171.806Z" transform="translate(-217.034 -140.779)" fill="#899f9f"/>
</svg>
