<svg xmlns="http://www.w3.org/2000/svg" width="52.464" height="45.333" viewBox="0 0 52.464 45.333">
  <g id="Group_433" data-name="Group 433" transform="translate(-5634.763 663)">
    <g id="Group_432" data-name="Group 432" transform="translate(5634.763 -663)">
      <g id="Group_425" data-name="Group 425" transform="translate(2.53 13.031)">
        <g id="Group_422" data-name="Group 422">
          <g id="Group_421" data-name="Group 421">
            <path id="Path_3375" data-name="Path 3375" d="M63.9,197.8a21.2,21.2,0,1,1,42.41,0,1.257,1.257,0,0,0,2.513,0,23.666,23.666,0,0,0-4.36-13.7A23.709,23.709,0,0,0,61.4,197.8a1.251,1.251,0,0,0,2.5,0Z" transform="translate(-61.398 -174.102)" fill="#899f9f"/>
          </g>
        </g>
        <g id="Group_424" data-name="Group 424" transform="translate(0.016 22.409)">
          <g id="Group_423" data-name="Group 423">
            <path id="Path_3376" data-name="Path 3376" d="M107.664,352.467H68.295c-1.822,0-3.657-.075-5.479,0h-.075a1.257,1.257,0,0,0,0,2.513h39.369c1.822,0,3.657.075,5.479,0h.075a1.257,1.257,0,0,0,0-2.513Z" transform="translate(-61.525 -352.433)" fill="#899f9f"/>
          </g>
        </g>
      </g>
      <g id="Group_427" data-name="Group 427" transform="translate(0 42.753)">
        <g id="Group_426" data-name="Group 426">
          <path id="Path_3377" data-name="Path 3377" d="M42.473,413.18h43.88c2.011,0,4.046.075,6.069,0h.088a1.257,1.257,0,0,0,0-2.513H48.631c-2.011,0-4.046-.075-6.069,0h-.088a1.257,1.257,0,0,0,0,2.513Z" transform="translate(-41.262 -410.633)" fill="#899f9f"/>
        </g>
      </g>
      <g id="Group_429" data-name="Group 429" transform="translate(24.785 0.129)">
        <g id="Group_428" data-name="Group 428">
          <path id="Path_3378" data-name="Path 3378" d="M241.013,85.533V72.641a1.257,1.257,0,0,0-2.513,0V85.533a1.257,1.257,0,0,0,2.513,0Z" transform="translate(-238.5 -71.425)" fill="#899f9f"/>
        </g>
      </g>
      <g id="Group_431" data-name="Group 431" transform="translate(17.512 0)">
        <g id="Group_430" data-name="Group 430">
          <path id="Path_3379" data-name="Path 3379" d="M181.841,72.913H196.48a1.257,1.257,0,0,0,0-2.513H181.841a1.257,1.257,0,0,0,0,2.513Z" transform="translate(-180.625 -70.4)" fill="#899f9f"/>
        </g>
      </g>
    </g>
  </g>
</svg>
