<svg xmlns="http://www.w3.org/2000/svg" width="61.024" height="61.336" viewBox="0 0 61.024 61.336">
  <g id="Group_408" data-name="Group 408" transform="translate(0 0)">
    <path id="Path_3341" data-name="Path 3341" d="M101.005,89.4a18.184,18.184,0,1,0-24.987,0C64.54,93.012,58,101.593,58,113.168v5.856h20.65v-1.849h-18.8v-4.007A21.828,21.828,0,0,1,64.957,98.46a25.845,25.845,0,0,1,13.2-7.754l1.809-.475-1.476-1.149a16.335,16.335,0,1,1,20.047,0L97.059,90.23l1.809.475a25.846,25.846,0,0,1,13.2,7.754,21.829,21.829,0,0,1,5.108,14.708v4.007h-18.8v1.849h20.65v-5.856C119.024,101.593,112.484,93.012,101.005,89.4Z" transform="translate(-58 -58)" fill="#fff"/>
    <path id="Path_3342" data-name="Path 3342" d="M213.252,293.914l-.324-1.821-7.48,1.33-.484-.861-.484.861-7.48-1.33-.324,1.82,6.844,1.217-7.853,13.961,9.3,8.264,9.3-8.264-7.853-13.961Zm-8.288,20.968-6.955-6.183,6.955-12.365,6.955,12.365Z" transform="translate(-174.451 -256.019)" fill="#fff"/>
  </g>
</svg>
