<svg id="Group_1207" data-name="Group 1207" xmlns="http://www.w3.org/2000/svg" width="49.869" height="77.07" viewBox="0 0 49.869 77.07">
  <g id="Group_1206" data-name="Group 1206" transform="translate(0 0)">
    <path id="Path_4372" data-name="Path 4372" d="M329.465,669.438a1.133,1.133,0,0,1-1.645-1.194l.662-3.864-2.806-2.736a1.133,1.133,0,0,1,.628-1.934l3.88-.563,1.734-3.516a1.134,1.134,0,0,1,2.033,0l1.734,3.516,3.88.563a1.133,1.133,0,0,1,.628,1.934l-2.806,2.736.662,3.864a1.133,1.133,0,0,1-1.645,1.194l-3.469-1.824Zm2.942-4.107a1.133,1.133,0,0,1,1.054,0l1.965,1.033-.375-2.187a1.131,1.131,0,0,1,.325-1l1.589-1.549-2.2-.319a1.134,1.134,0,0,1-.854-.62l-.983-1.99-.983,1.99a1.133,1.133,0,0,1-.853.62l-2.2.319,1.589,1.549a1.131,1.131,0,0,1,.325,1l-.375,2.188Zm-17.676,8.641a1.133,1.133,0,0,1-1.645-1.195l.662-3.864-2.806-2.736a1.133,1.133,0,0,1,.628-1.934l3.88-.563,1.734-3.516a1.134,1.134,0,0,1,2.033,0l1.734,3.516,3.88.563a1.133,1.133,0,0,1,.628,1.934l-2.806,2.736.662,3.864a1.133,1.133,0,0,1-1.645,1.195l-3.469-1.824Zm2.942-4.107a1.132,1.132,0,0,1,1.054,0l1.965,1.032-.375-2.187a1.131,1.131,0,0,1,.325-1l1.589-1.549-2.2-.318a1.134,1.134,0,0,1-.853-.62l-.983-1.99-.983,1.99a1.134,1.134,0,0,1-.853.62l-2.2.318,1.589,1.549a1.131,1.131,0,0,1,.325,1l-.375,2.187Zm26.526,4.107a1.133,1.133,0,0,1-1.645-1.195l.662-3.864-2.806-2.736a1.133,1.133,0,0,1,.628-1.934l3.88-.563,1.734-3.516a1.134,1.134,0,0,1,2.033,0l1.734,3.516,3.88.563a1.133,1.133,0,0,1,.628,1.934l-2.806,2.736.662,3.864a1.133,1.133,0,0,1-1.645,1.195l-3.469-1.824Zm2.942-4.107a1.132,1.132,0,0,1,1.054,0l1.965,1.032-.375-2.187a1.131,1.131,0,0,1,.325-1l1.589-1.549-2.2-.318a1.134,1.134,0,0,1-.853-.62l-.983-1.99-.983,1.99a1.134,1.134,0,0,1-.853.62l-2.2.318,1.589,1.549a1.131,1.131,0,0,1,.325,1l-.375,2.187Zm9.594,62.206h-47.6A1.134,1.134,0,0,1,308,730.937v-40.8A1.134,1.134,0,0,1,309.133,689H328.4v-5.667a1.134,1.134,0,0,1,1.133-1.133h27.2a1.134,1.134,0,0,1,1.133,1.133v47.6A1.134,1.134,0,0,1,356.735,732.07ZM348.8,729.8h6.8V684.468H330.668V729.8h6.8V717.336A1.134,1.134,0,0,1,338.6,716.2h9.067a1.134,1.134,0,0,1,1.133,1.133Zm-20.4,0V691.268H310.267V729.8Zm11.334,0h6.8V718.469h-6.8Zm-3.4-20.4a1.133,1.133,0,0,1,0-2.267h3.4a1.133,1.133,0,0,1,0,2.267Zm10.2,0a1.133,1.133,0,0,1,0-2.267h3.4a1.133,1.133,0,0,1,0,2.267Zm-10.2-15.867a1.133,1.133,0,0,1,0-2.267h3.4a1.133,1.133,0,0,1,0,2.267Zm10.2,0a1.133,1.133,0,0,1,0-2.267h3.4a1.133,1.133,0,0,1,0,2.267Zm-10.2,7.934a1.133,1.133,0,0,1,0-2.267h3.4a1.133,1.133,0,0,1,0,2.267Zm10.2,0a1.133,1.133,0,0,1,0-2.267h3.4a1.133,1.133,0,0,1,0,2.267Zm-30.6,20.4a1.133,1.133,0,1,1,0-2.267h6.8a1.133,1.133,0,1,1,0,2.267Zm0-10.2a1.133,1.133,0,1,1,0-2.267h6.8a1.133,1.133,0,0,1,0,2.267Zm0-10.2a1.133,1.133,0,0,1,0-2.267h6.8a1.133,1.133,0,0,1,0,2.267Z" transform="translate(-308 -655)" fill="#fff" fill-rule="evenodd"/>
  </g>
</svg>
