<svg id="Group_1209" data-name="Group 1209" xmlns="http://www.w3.org/2000/svg" width="62.267" height="62.026" viewBox="0 0 62.267 62.026">
  <path id="Path_3349" data-name="Path 3349" d="M46.753,46.388a1.476,1.476,0,0,1-1.474,1.475H23.867a1.476,1.476,0,0,1-1.474-1.475V24.977A1.476,1.476,0,0,1,23.867,23.5H38.6V21.536H23.867a3.445,3.445,0,0,0-3.44,3.44V46.388a3.445,3.445,0,0,0,3.44,3.44H45.279a3.445,3.445,0,0,0,3.44-3.44V32.242H46.753V46.388ZM27.282,31.809,26,33.3l7.428,6.374,15.812-17.52-1.459-1.317-14.528,16.1Z" transform="translate(13.024 -20.837)" fill="#fff"/>
  <path id="Union_14" data-name="Union 14" d="M17.587,28.292H3.441A3.445,3.445,0,0,1,0,24.851V3.441A3.445,3.445,0,0,1,3.441,0H24.851a3.445,3.445,0,0,1,3.441,3.441V24.851a3.445,3.445,0,0,1-3.441,3.441Zm7.265-1.966a1.476,1.476,0,0,0,1.474-1.474h0V3.441a1.476,1.476,0,0,0-1.475-1.474H3.441A1.476,1.476,0,0,0,1.967,3.441V24.851a1.476,1.476,0,0,0,1.474,1.474Z" transform="translate(0 0.699)" fill="#fff"/>
  <path id="Union_15" data-name="Union 15" d="M17.587,28.292H3.441A3.445,3.445,0,0,1,0,24.851V3.441A3.445,3.445,0,0,1,3.441,0H24.851a3.445,3.445,0,0,1,3.441,3.441V24.851a3.445,3.445,0,0,1-3.441,3.441Zm7.265-1.966a1.476,1.476,0,0,0,1.474-1.474h0V3.441a1.476,1.476,0,0,0-1.475-1.474H3.441A1.476,1.476,0,0,0,1.967,3.441V24.851a1.476,1.476,0,0,0,1.474,1.474Z" transform="translate(0 33.734)" fill="#fff"/>
  <path id="Union_16" data-name="Union 16" d="M17.587,28.292H3.441A3.445,3.445,0,0,1,0,24.851V3.441A3.445,3.445,0,0,1,3.441,0H24.851a3.445,3.445,0,0,1,3.441,3.441V24.851a3.445,3.445,0,0,1-3.441,3.441Zm7.265-1.966a1.476,1.476,0,0,0,1.474-1.474h0V3.441a1.476,1.476,0,0,0-1.475-1.474H3.441A1.476,1.476,0,0,0,1.967,3.441V24.851a1.476,1.476,0,0,0,1.474,1.474Z" transform="translate(33.451 33.734)" fill="#fff"/>
</svg>
