<svg xmlns="http://www.w3.org/2000/svg" width="44.247" height="73.131" viewBox="0 0 44.247 73.131">
  <path id="Subtraction_4" data-name="Subtraction 4" d="M39.879,73.131H17.644a4.431,4.431,0,0,1-4.368-4.459V60.217c0-4.7,1.722-7.214,3.9-10.394.541-.786,1.119-1.633,1.715-2.588q.12-.189.238-.378c.132-.21.266-.424.4-.631,2.315-3.627,4.5-7.053,4.5-15.547V26.533l-.505.583a8.7,8.7,0,0,1-6.567,3c-.1,0-.2,0-.3-.005a.968.968,0,0,1,0-1.936c.109.005.219.008.328.008a6.927,6.927,0,0,0,6.364-4.216l.2-.428H20.739a.959.959,0,0,1-.947-.968v-.659H16.621a.944.944,0,0,1-.672-.286.957.957,0,0,1-.275-.68v-4a.957.957,0,0,1,.947-.962h3.171v-.747a.959.959,0,0,1,.947-.968H39.645a.942.942,0,0,1,.672.285.959.959,0,0,1,.276.681v6.073a.958.958,0,0,1-.275.681.943.943,0,0,1-.672.287c-3.725,0-6.534,2.33-6.534,5.42V30.36l.052.076c1.657,2.335,9.98,15.139,11.077,37.986a4.548,4.548,0,0,1-1.2,3.325A4.321,4.321,0,0,1,39.879,73.131ZM15.165,65.308v3.361a2.505,2.505,0,0,0,.72,1.781,2.468,2.468,0,0,0,1.758.748H39.879a2.422,2.422,0,0,0,1.783-.784,2.556,2.556,0,0,0,.691-1.784l0-.11c-.045-.911-.108-1.844-.2-2.939l-.017-.273Zm2.7-13.1h0l-.088.132a12.911,12.911,0,0,0-2.608,7.883v3.152H41.96l-.035-.327a87.705,87.705,0,0,0-1.778-10.607L40.1,52.2H17.865Zm8.05-20.557-.012.291c-.214,8.179-2.538,11.819-4.786,15.339l-.626,1c-.345.554-.673,1.054-1,1.531l-.307.463H39.614l-.1-.374a74.37,74.37,0,0,0-3.067-9.159,51.3,51.3,0,0,0-4.671-8.958l-.088-.13ZM21.686,16.2v5.4h3.292a.944.944,0,0,1,.672.287.958.958,0,0,1,.275.681v7.146h5.293V27.694c0-3.8,2.972-6.8,7.226-7.284l.255-.029V16.2Zm-4.118,1.71v2.066h2.225V17.911Zm-4.3,19.546a.89.89,0,0,1-.885-.893.889.889,0,0,0-.885-.891.892.892,0,0,1,0-1.784A.889.889,0,0,0,12.383,33a.885.885,0,1,1,1.77,0,.889.889,0,0,0,.885.891.892.892,0,0,1,0,1.784.889.889,0,0,0-.885.891A.89.89,0,0,1,13.268,37.457ZM2.888,28.531h0l-.744-.578A15.732,15.732,0,0,1,7.42,23.341a14.56,14.56,0,0,1,5.774-1.709l.062.968a14.057,14.057,0,0,0-5.433,1.611A14.4,14.4,0,0,0,2.889,28.53Zm9.9-9.188h0c-1.063-.035-2.207-.061-3.419-.088C8.4,19.233,7.4,19.21,6.4,19.181S4.38,19.13,3.4,19.108c-1.209-.027-2.348-.052-3.4-.087l.031-.968c1.063.035,2.208.061,3.421.089.973.022,1.975.045,2.974.073h.089c2.154.062,4.379.127,6.311.158l-.035.97Zm.373-3.524h0a14.584,14.584,0,0,1-5.774-1.71A15.725,15.725,0,0,1,2.111,9.5l.776-.582a14.73,14.73,0,0,0,4.936,4.318,13.943,13.943,0,0,0,5.433,1.612l-.092.97ZM9.728,5.351a.89.89,0,0,1-.886-.891.89.89,0,0,0-.885-.893.892.892,0,0,1,0-1.784A.889.889,0,0,0,8.842.891a.885.885,0,1,1,1.77,0,.89.89,0,0,0,.886.891.892.892,0,0,1,0,1.784.89.89,0,0,0-.886.893A.889.889,0,0,1,9.728,5.351Z" fill="#899f9f"/>
</svg>
